<?xml version="1.0" standalone="no"?>
<!DOCTYPE svg PUBLIC "-//W3C//DTD SVG 20010904//EN"
 "http://www.w3.org/TR/2001/REC-SVG-20010904/DTD/svg10.dtd">
<svg version="1.0" xmlns="http://www.w3.org/2000/svg"
 width="1024.000000pt" height="1024.000000pt" viewBox="0 0 1024.000000 1024.000000"
 preserveAspectRatio="xMidYMid meet">

<g transform="translate(0.000000,1024.000000) scale(0.100000,-0.100000)"
fill="#000000" stroke="none">
<path d="M1010 9786 c0 -4 -7 -6 -15 -3 -8 4 -17 2 -20 -4 -4 -5 -11 -7 -16
-4 -5 4 -9 1 -9 -4 0 -6 -3 -10 -7 -10 -20 3 -34 -2 -28 -11 3 -5 -6 -17 -20
-26 -13 -9 -22 -20 -19 -25 3 -5 0 -9 -6 -9 -6 0 -8 -4 -5 -10 3 -5 2 -10 -4
-10 -6 0 -8 -6 -5 -14 3 -8 1 -17 -5 -21 -15 -9 -15 -7351 -1 -7360 6 -4 8
-11 5 -16 -4 -5 -1 -9 5 -9 7 0 9 -7 6 -15 -3 -9 1 -18 9 -21 8 -4 13 -10 10
-14 -6 -10 22 -33 43 -37 9 -1 21 -8 27 -16 5 -7 16 -12 23 -10 6 3 12 0 12
-5 0 -14 -3 -14 605 -15 546 0 587 1 613 17 6 4 12 4 12 1 0 -4 7 1 16 9 8 9
19 14 24 11 4 -3 11 2 14 11 3 8 11 12 17 8 7 -4 9 -3 5 4 -3 6 3 17 14 25 11
7 17 17 13 20 -3 4 -1 7 6 7 7 0 10 4 6 9 -3 5 -1 12 5 16 6 4 8 11 5 16 -4 5
-4 13 0 19 3 5 5 540 5 1189 0 801 3 1182 10 1186 6 4 8 10 5 14 -6 11 41 62
49 54 3 -4 6 -1 6 6 0 7 5 9 10 6 6 -3 10 -3 10 2 0 4 381 8 847 8 467 0 866
4 889 9 34 7 41 6 41 -8 0 -9 -4 -16 -9 -16 -5 0 -7 -4 -3 -9 3 -5 1 -12 -5
-16 -6 -4 -8 -11 -5 -16 4 -5 1 -9 -5 -9 -6 0 -8 -4 -5 -10 3 -5 1 -10 -4 -10
-6 0 -10 -3 -9 -7 1 -5 -3 -18 -10 -29 -6 -12 -8 -24 -5 -28 3 -3 1 -6 -6 -6
-7 0 -10 -4 -6 -9 3 -5 1 -12 -5 -16 -6 -4 -8 -11 -5 -16 4 -5 1 -9 -5 -9 -6
0 -8 -4 -5 -10 3 -5 1 -10 -5 -10 -6 0 -9 -4 -5 -9 3 -5 1 -12 -5 -16 -6 -4
-8 -11 -5 -16 4 -5 1 -9 -5 -9 -6 0 -8 -4 -5 -10 3 -5 1 -10 -5 -10 -6 0 -9
-4 -5 -9 3 -5 1 -12 -5 -16 -6 -4 -8 -11 -5 -16 4 -5 1 -9 -5 -9 -6 0 -8 -4
-5 -10 3 -6 2 -10 -4 -10 -6 0 -8 -7 -5 -15 4 -8 1 -15 -6 -15 -6 0 -8 -4 -5
-10 3 -5 1 -10 -5 -10 -6 0 -8 -4 -5 -10 3 -5 1 -10 -5 -10 -6 0 -9 -4 -5 -9
3 -5 1 -12 -5 -16 -6 -4 -8 -11 -5 -16 4 -5 1 -9 -5 -9 -6 0 -8 -4 -5 -10 3
-5 2 -10 -2 -10 -5 0 -10 -10 -10 -22 -1 -13 -7 -24 -13 -26 -5 -2 -8 -8 -4
-13 3 -5 0 -9 -6 -9 -6 0 -8 -4 -5 -10 3 -5 1 -10 -5 -10 -7 0 -10 -7 -6 -15
3 -8 1 -15 -5 -15 -6 0 -7 -4 -4 -10 3 -5 1 -10 -4 -10 -6 0 -10 -3 -9 -7 1
-5 -3 -18 -10 -29 -6 -12 -8 -24 -5 -28 3 -3 1 -6 -5 -6 -7 0 -11 -3 -10 -7 1
-5 -3 -18 -10 -29 -6 -12 -8 -24 -5 -28 3 -3 1 -6 -6 -6 -7 0 -9 -4 -6 -10 3
-5 1 -10 -5 -10 -6 0 -9 -4 -5 -9 3 -5 1 -12 -5 -16 -6 -4 -8 -11 -5 -16 4 -5
1 -9 -5 -9 -6 0 -9 -4 -5 -9 3 -5 1 -12 -5 -16 -6 -4 -8 -11 -5 -16 4 -5 1 -9
-5 -9 -6 0 -8 -5 -5 -10 3 -6 1 -10 -6 -10 -7 0 -9 -3 -6 -6 3 -4 1 -16 -5
-28 -7 -11 -11 -24 -10 -28 1 -5 -3 -8 -10 -8 -6 0 -8 -3 -5 -6 3 -4 1 -16 -5
-28 -7 -11 -11 -24 -10 -28 1 -5 -3 -8 -9 -8 -5 0 -7 -4 -4 -10 3 -5 1 -10 -5
-10 -6 0 -9 -4 -5 -9 3 -5 1 -12 -5 -16 -6 -4 -8 -11 -5 -16 4 -5 1 -9 -5 -9
-6 0 -9 -4 -6 -9 4 -5 1 -11 -4 -13 -6 -2 -12 -13 -13 -26 0 -12 -5 -22 -10
-22 -4 0 -5 -4 -2 -10 3 -5 1 -10 -5 -10 -6 0 -9 -4 -5 -9 3 -5 1 -12 -5 -16
-6 -4 -8 -11 -5 -16 4 -5 1 -9 -5 -9 -6 0 -8 -4 -5 -10 3 -5 1 -10 -5 -10 -6
0 -9 -4 -5 -9 3 -5 1 -12 -5 -16 -6 -4 -8 -11 -5 -16 4 -5 1 -9 -5 -9 -6 0 -8
-5 -5 -10 3 -6 2 -10 -4 -10 -6 0 -8 -7 -5 -15 4 -8 1 -15 -6 -15 -6 0 -8 -5
-5 -10 3 -6 1 -10 -6 -10 -7 0 -9 -3 -6 -7 4 -3 1 -16 -7 -27 -8 -13 -10 -29
-6 -41 7 -18 8 -18 15 8 4 15 11 27 17 27 5 0 6 5 3 10 -3 5 -1 10 5 10 6 0 8
5 5 10 -3 6 1 13 9 16 9 3 13 10 10 15 -3 5 0 9 7 9 7 0 9 3 6 7 -4 3 1 12 11
20 11 10 12 12 2 8 -10 -4 -9 -2 2 8 10 8 15 17 11 20 -3 4 0 7 7 7 7 0 10 3
7 7 -4 3 1 12 11 20 11 10 12 12 2 8 -10 -4 -9 -2 2 8 10 8 15 17 11 20 -3 4
-1 7 6 7 7 0 9 5 6 10 -3 6 1 13 9 16 9 3 13 10 10 15 -3 5 0 9 6 9 6 0 8 5 5
10 -3 6 -1 10 5 10 6 0 8 5 5 10 -3 6 1 13 9 16 9 3 14 10 11 14 -3 4 2 10 10
14 8 3 15 15 15 26 0 11 5 20 11 20 5 0 7 5 4 10 -3 6 -1 10 5 10 6 0 8 5 5
10 -3 6 -1 10 4 10 6 0 11 7 11 15 0 8 5 15 11 15 5 0 7 5 4 10 -3 6 -1 10 5
10 6 0 9 4 6 9 -3 5 1 12 10 15 8 3 12 10 9 16 -3 5 -1 10 6 10 7 0 9 3 6 7
-4 3 1 12 11 20 11 10 12 12 2 8 -10 -4 -9 -2 2 8 10 8 15 17 11 20 -3 4 0 7
7 7 7 0 10 3 7 7 -4 3 1 12 11 20 11 10 12 12 2 8 -10 -4 -9 -2 2 8 10 8 15
17 11 20 -3 4 0 7 7 7 7 0 10 3 7 7 -4 3 1 12 11 20 11 10 12 12 2 8 -8 -4 -6
1 4 9 11 9 17 16 13 16 -4 0 2 9 13 20 12 12 18 25 15 30 -4 6 -1 10 5 10 6 0
8 5 5 10 -3 6 -1 10 5 10 6 0 8 5 5 10 -3 6 1 13 9 16 9 3 13 10 10 15 -3 5 0
9 6 9 6 0 8 5 5 10 -3 6 -1 10 5 10 6 0 8 5 5 10 -3 6 1 13 9 16 9 3 13 10 10
15 -3 5 0 9 6 9 6 0 8 5 5 10 -3 5 -1 10 4 10 6 0 11 7 11 15 0 8 5 15 11 15
5 0 7 5 4 10 -3 6 -1 10 5 10 6 0 8 5 5 10 -3 6 1 13 9 16 9 3 13 10 10 15 -3
5 0 9 6 9 6 0 8 5 5 10 -3 6 -1 10 5 10 6 0 8 5 5 10 -3 6 1 13 9 16 9 3 13
10 10 15 -3 5 0 9 6 9 6 0 8 5 5 10 -3 6 -1 10 4 10 6 0 11 7 11 15 0 8 5 15
11 15 5 0 7 5 4 10 -3 6 -1 10 5 10 6 0 8 5 5 10 -3 6 1 13 9 16 9 3 13 10 10
15 -3 5 0 9 6 9 6 0 8 5 5 10 -3 6 -1 10 5 10 6 0 8 5 5 10 -3 6 1 13 9 16 9
3 13 10 10 15 -3 5 0 9 6 9 6 0 8 5 5 10 -3 6 -1 10 4 10 6 0 11 7 11 15 0 8
5 15 11 15 5 0 7 5 4 10 -3 6 -1 10 5 10 6 0 9 4 6 9 -3 5 1 12 10 15 8 3 12
10 9 16 -3 5 -1 10 5 10 6 0 8 5 5 10 -3 6 -1 10 5 10 6 0 8 4 5 10 -3 6 -1
10 4 10 6 0 11 7 11 15 0 8 5 15 11 15 5 0 7 5 4 10 -3 6 -1 10 5 10 6 0 8 5
5 10 -3 6 1 13 9 16 9 3 13 10 10 15 -3 5 0 9 6 9 6 0 8 5 5 10 -3 6 -1 10 4
10 6 0 11 7 11 15 0 8 5 15 11 15 5 0 7 4 4 10 -3 6 -1 10 5 10 6 0 8 5 5 10
-3 6 1 13 9 16 9 3 13 10 10 15 -3 5 0 9 6 9 6 0 8 5 5 10 -3 6 -1 10 5 10 6
0 9 4 6 8 -3 5 3 18 14 29 10 12 16 24 13 27 -4 3 -1 6 5 6 7 0 12 7 12 15 0
8 5 15 11 15 5 0 7 5 4 10 -3 6 -1 10 5 10 6 0 9 4 6 9 -3 5 1 12 10 15 8 3
12 10 9 16 -3 5 -1 10 5 10 6 0 8 5 5 10 -3 6 -1 10 5 10 6 0 9 4 6 9 -3 5 1
12 10 15 8 3 12 10 9 16 -3 5 -1 10 5 10 6 0 8 5 5 10 -3 6 -1 10 5 10 6 0 9
4 6 9 -3 5 1 12 10 15 8 3 12 10 9 16 -3 5 -1 10 5 10 6 0 8 5 5 10 -3 6 -1
10 4 10 6 0 11 7 11 15 0 8 5 15 11 15 5 0 7 5 4 10 -3 6 -1 10 5 10 6 0 8 5
5 10 -3 6 -1 10 4 10 6 0 11 7 11 15 0 8 5 15 11 15 5 0 7 5 4 10 -3 6 -1 10
5 10 6 0 9 4 6 9 -3 5 1 12 10 15 8 3 12 10 9 16 -3 5 -1 10 5 10 6 0 8 5 5
10 -3 6 -1 10 5 10 6 0 8 5 5 10 -3 6 1 13 9 16 9 3 13 10 10 15 -3 5 0 9 7 9
7 0 9 3 6 7 -4 3 1 12 11 20 11 10 12 12 2 8 -10 -4 -9 -2 2 8 10 8 15 17 11
20 -3 4 -1 7 6 7 7 0 9 5 6 10 -3 6 -1 10 4 10 6 0 11 7 11 15 0 8 5 15 11 15
5 0 7 5 4 10 -3 6 -1 10 5 10 6 0 8 5 5 10 -3 6 -1 10 4 10 6 0 11 7 11 15 0
8 5 15 11 15 5 0 7 5 4 10 -3 6 -1 10 4 10 6 0 11 7 11 15 0 8 4 15 10 15 5 0
7 7 4 15 -4 8 1 17 10 21 9 3 16 12 16 20 0 8 5 14 11 14 5 0 7 5 4 10 -3 6
-1 10 5 10 6 0 8 5 5 10 -3 6 1 13 9 16 9 3 13 10 10 15 -3 5 0 9 6 9 6 0 8 5
5 10 -3 6 -1 10 4 10 6 0 11 7 11 15 0 8 5 15 11 15 5 0 7 5 4 10 -3 6 -1 10
5 10 6 0 8 5 5 10 -3 6 -1 10 4 10 6 0 11 7 11 15 0 8 5 15 11 15 5 0 7 5 4
10 -3 6 -1 10 6 10 7 0 9 3 6 7 -4 3 1 12 11 20 11 10 12 12 2 8 -10 -4 -9 -2
2 8 10 8 15 17 11 20 -3 4 -1 7 6 7 7 0 10 4 6 10 -3 5 3 18 14 29 11 11 17
22 14 25 -4 3 -1 6 6 6 7 0 10 4 7 9 -3 5 1 12 10 15 8 3 12 10 9 16 -3 5 -1
10 5 10 6 0 8 5 5 10 -3 6 -1 10 4 10 6 0 11 7 11 15 0 8 5 15 11 15 5 0 7 5
4 10 -3 6 -1 10 5 10 6 0 8 5 5 10 -3 6 -1 10 4 10 6 0 11 7 11 15 0 8 5 15
11 15 5 0 7 5 4 10 -3 6 -1 10 5 10 6 0 8 5 5 10 -3 6 -1 10 4 10 6 0 11 7 11
15 0 8 5 15 11 15 5 0 7 5 4 10 -3 6 -1 10 5 10 6 0 8 5 5 10 -3 6 1 13 9 16
9 3 13 10 10 15 -3 5 0 9 6 9 6 0 8 5 5 10 -3 6 -1 10 4 10 6 0 11 7 11 15 0
8 5 15 12 15 6 0 9 3 5 6 -3 3 3 15 13 27 11 11 17 24 14 29 -3 4 0 8 6 8 6 0
8 5 5 10 -3 6 -1 10 5 10 6 0 8 5 5 10 -3 6 -1 10 4 10 6 0 11 7 11 15 0 8 5
15 11 15 5 0 7 5 4 10 -3 6 -1 10 5 10 6 0 8 5 5 10 -3 6 1 13 9 16 9 3 13 10
10 15 -3 5 0 9 6 9 6 0 8 5 5 10 -3 6 -1 10 5 10 6 0 8 5 5 10 -3 6 1 13 9 16
9 3 13 10 10 15 -3 5 0 9 6 9 6 0 9 4 6 9 -3 5 1 12 10 15 8 3 12 10 9 16 -3
5 -1 10 5 10 6 0 8 5 5 10 -3 6 -1 10 5 10 6 0 8 5 5 10 -3 6 1 13 9 16 9 3
13 10 10 15 -3 5 0 9 6 9 6 0 8 5 5 10 -3 6 -1 10 5 10 6 0 8 5 5 10 -3 6 1
13 9 16 9 3 13 10 10 15 -3 5 0 9 6 9 6 0 8 5 5 10 -3 6 -1 10 4 10 6 0 11 7
11 15 0 8 5 15 11 15 5 0 7 5 4 10 -3 6 -1 10 5 10 6 0 9 4 6 9 -3 5 1 12 10
15 8 3 12 10 9 16 -3 5 -1 10 5 10 6 0 8 5 5 10 -3 6 -1 10 5 10 6 0 8 5 5 10
-3 6 1 13 9 16 9 3 13 10 10 15 -3 5 0 9 6 9 6 0 8 5 5 10 -3 6 -1 10 4 10 6
0 11 7 11 15 0 8 5 15 11 15 5 0 7 5 4 10 -3 6 -1 10 5 10 6 0 9 4 6 9 -3 5 1
12 10 15 13 5 15 45 10 348 -3 189 -8 370 -11 403 -3 33 -5 76 -6 95 0 19 -5
40 -10 46 -5 7 -7 23 -4 37 4 14 2 28 -4 32 -6 3 -8 17 -5 31 4 15 2 24 -6 24
-8 0 -10 9 -6 25 4 16 2 25 -5 25 -6 0 -9 9 -6 20 3 11 1 23 -5 26 -5 3 -7 12
-4 20 3 7 1 16 -5 20 -6 3 -8 12 -5 20 3 7 1 16 -4 19 -5 3 -7 12 -4 19 3 8 0
17 -5 21 -6 3 -9 11 -6 16 4 5 1 9 -5 9 -7 0 -10 7 -7 15 4 8 2 17 -4 20 -5 4
-7 10 -4 15 3 5 1 11 -5 15 -6 4 -8 11 -5 16 4 5 1 9 -5 9 -7 0 -10 7 -6 15 3
8 1 15 -5 15 -6 0 -7 5 -4 10 3 6 1 10 -5 10 -7 0 -9 7 -6 16 4 10 2 13 -6 8
-8 -5 -9 -2 -5 9 3 10 2 17 -4 17 -6 0 -8 4 -4 9 3 5 1 12 -5 16 -6 4 -8 11
-5 16 4 5 1 9 -5 9 -6 0 -8 5 -5 10 3 6 1 10 -5 10 -6 0 -8 5 -5 10 3 6 1 10
-5 10 -6 0 -8 5 -5 10 3 6 1 10 -5 10 -6 0 -8 5 -5 10 3 6 1 10 -4 10 -6 0
-11 7 -11 15 0 8 -5 15 -11 15 -5 0 -7 5 -4 10 3 6 1 10 -4 10 -6 0 -11 7 -11
15 0 8 -5 15 -11 15 -5 0 -8 4 -5 9 3 5 -1 12 -10 15 -8 3 -13 10 -10 15 3 5
-1 12 -10 15 -9 4 -14 9 -11 12 3 4 -4 15 -16 26 -12 11 -15 16 -7 13 8 -4 2
4 -15 19 -16 14 -26 25 -21 26 5 0 -3 9 -18 21 -14 11 -26 25 -26 30 0 13
-147 159 -160 159 -5 0 -17 11 -26 25 -9 14 -20 23 -24 20 -5 -3 -15 4 -23 15
-7 11 -16 17 -20 14 -3 -3 -10 4 -17 15 -6 12 -15 19 -19 16 -5 -3 -12 2 -15
11 -3 8 -10 13 -15 10 -5 -3 -12 1 -15 10 -3 8 -10 12 -16 9 -5 -3 -10 -1 -10
4 0 6 -7 11 -15 11 -8 0 -15 5 -15 11 0 5 -4 7 -10 4 -6 -3 -10 -1 -10 5 0 6
-4 8 -10 5 -6 -3 -10 -1 -10 4 0 6 -7 11 -15 11 -8 0 -15 5 -15 11 0 5 -4 7
-10 4 -6 -3 -10 -1 -10 5 0 6 -4 8 -10 5 -6 -3 -10 -1 -10 4 0 6 -11 11 -25
11 -14 0 -25 5 -25 11 0 5 -4 7 -10 4 -5 -3 -10 -1 -10 5 0 6 -4 8 -10 5 -5
-3 -10 -2 -10 4 0 6 -7 8 -15 5 -8 -4 -15 -1 -15 6 0 6 -4 8 -10 5 -5 -3 -10
-2 -10 4 0 6 -7 8 -15 5 -8 -4 -15 -1 -15 5 0 6 -7 8 -15 5 -8 -4 -15 -1 -15
6 0 6 -4 9 -9 5 -5 -3 -12 -1 -16 5 -4 6 -10 8 -15 5 -5 -3 -11 -1 -15 4 -3 6
-12 8 -20 4 -8 -3 -15 0 -15 7 0 7 -7 10 -15 6 -8 -3 -15 -1 -15 5 0 6 -9 8
-20 4 -12 -4 -20 -2 -20 5 0 7 -8 9 -20 5 -12 -4 -20 -2 -20 5 0 7 -8 9 -19 5
-11 -3 -22 -1 -26 5 -4 6 -15 8 -25 5 -10 -3 -21 -1 -25 5 -4 6 -15 8 -25 5
-10 -3 -21 -1 -25 5 -4 7 -18 9 -32 6 -13 -4 -29 -3 -36 1 -12 8 -25 10 -137
17 -132 8 -3270 11 -3270 2z m2905 -1310 c22 -3 51 -7 65 -8 14 -2 31 -7 38
-11 6 -5 16 -6 21 -2 5 3 12 1 16 -4 3 -6 12 -8 20 -4 8 3 15 0 15 -7 0 -7 7
-10 15 -6 8 3 15 1 15 -4 0 -5 7 -7 15 -4 8 4 15 1 15 -6 0 -6 5 -8 10 -5 6 3
10 1 10 -5 0 -6 5 -8 10 -5 6 3 10 1 10 -4 0 -6 7 -11 15 -11 8 0 15 -5 15
-11 0 -5 4 -8 9 -5 5 3 16 -5 25 -19 9 -14 22 -24 29 -22 6 1 11 -4 10 -10 -2
-7 8 -20 22 -29 14 -9 22 -20 19 -25 -3 -5 0 -9 5 -9 6 0 11 -7 11 -15 0 -8 5
-15 11 -15 5 0 7 -4 4 -10 -3 -5 -1 -10 5 -10 6 0 9 -4 5 -9 -3 -5 -1 -12 5
-16 6 -4 8 -11 5 -16 -4 -5 -1 -9 5 -9 6 0 9 -4 5 -9 -3 -5 -1 -12 4 -16 6 -3
8 -12 4 -20 -3 -8 0 -15 7 -15 7 0 10 -7 7 -15 -4 -8 -2 -17 3 -20 6 -4 7 -17
4 -31 -4 -13 -2 -24 4 -24 5 0 10 -17 10 -37 -1 -21 0 -331 1 -688 1 -358 0
-657 -3 -665 -3 -8 -5 -26 -5 -40 0 -45 -4 -65 -13 -77 -5 -7 -7 -17 -4 -22 4
-5 2 -12 -4 -16 -6 -4 -8 -10 -5 -15 3 -5 1 -11 -4 -15 -6 -3 -8 -12 -4 -20 3
-8 0 -15 -7 -15 -6 0 -8 -4 -5 -10 3 -5 1 -10 -5 -10 -6 0 -8 -4 -5 -10 3 -5
1 -10 -5 -10 -6 0 -8 -4 -5 -10 3 -5 1 -10 -5 -10 -6 0 -8 -4 -5 -10 3 -5 1
-10 -5 -10 -6 0 -9 -4 -5 -9 3 -6 -4 -15 -16 -21 -11 -7 -18 -14 -15 -18 8 -8
-45 -63 -55 -56 -4 2 -13 -5 -19 -16 -6 -11 -15 -18 -21 -15 -5 4 -9 1 -9 -6
0 -7 -3 -10 -6 -6 -4 3 -13 -1 -21 -9 -8 -8 -19 -12 -24 -9 -5 4 -9 1 -9 -5 0
-6 -4 -8 -10 -5 -5 3 -10 2 -10 -4 0 -6 -7 -8 -15 -5 -8 4 -15 1 -15 -5 0 -6
-7 -8 -15 -5 -8 4 -15 1 -15 -6 0 -7 -8 -9 -20 -5 -11 3 -20 2 -20 -3 0 -6
-10 -10 -22 -11 -13 0 -41 -2 -63 -5 -22 -3 -368 -5 -770 -5 -401 -1 -733 -1
-737 -1 -5 0 -10 -1 -12 -2 -4 -4 -61 64 -61 73 0 4 -3 11 -7 15 -13 12 -10
2202 3 2209 6 4 8 13 5 21 -3 8 0 14 6 14 6 0 9 3 6 6 -8 7 25 42 35 37 4 -2
7 1 7 7 0 6 4 9 9 5 5 -3 12 -1 16 5 7 11 1395 8 1470 -4z"/>
<path d="M7703 8127 c-2 -4 -13 -5 -23 -2 -10 3 -21 1 -25 -5 -4 -6 -13 -9
-21 -6 -8 3 -14 1 -14 -5 0 -6 -7 -9 -15 -5 -8 3 -15 1 -15 -4 0 -6 -3 -9 -7
-8 -15 4 -53 -13 -53 -23 0 -6 -4 -7 -10 -4 -5 3 -10 1 -10 -5 0 -6 -4 -9 -9
-5 -6 3 -15 -4 -21 -15 -6 -11 -15 -18 -19 -16 -4 3 -25 -13 -47 -36 -21 -22
-32 -38 -24 -34 8 4 2 -4 -15 -18 -16 -14 -25 -26 -20 -26 6 0 2 -5 -8 -11 -9
-6 -15 -14 -12 -19 3 -4 -2 -11 -11 -14 -8 -3 -12 -10 -9 -16 3 -6 -1 -13 -9
-16 -9 -3 -14 -10 -11 -14 3 -5 -3 -13 -12 -19 -10 -6 -13 -11 -8 -11 6 0 -1
-10 -15 -21 -14 -11 -18 -18 -10 -14 8 4 4 -3 -10 -15 -14 -12 -18 -19 -10
-15 8 4 4 -3 -10 -14 -14 -11 -20 -21 -15 -21 6 0 2 -5 -8 -11 -9 -6 -15 -14
-12 -20 4 -5 -1 -12 -9 -15 -9 -3 -13 -10 -10 -15 3 -5 -2 -12 -10 -15 -9 -3
-14 -10 -11 -14 3 -5 -3 -13 -12 -19 -10 -6 -13 -11 -8 -11 6 0 -1 -10 -15
-21 -14 -11 -18 -18 -10 -14 10 4 9 1 -2 -8 -10 -8 -18 -19 -18 -25 0 -5 -7
-13 -16 -16 -8 -3 -13 -10 -10 -15 3 -5 -1 -12 -10 -15 -8 -3 -13 -10 -10 -15
3 -5 -1 -12 -10 -15 -8 -3 -13 -10 -10 -15 3 -5 -1 -12 -10 -15 -8 -3 -12 -10
-9 -16 3 -6 -1 -13 -9 -16 -9 -3 -13 -10 -10 -15 3 -5 -2 -12 -10 -15 -9 -3
-16 -11 -16 -16 0 -6 -8 -17 -17 -25 -12 -9 -13 -12 -3 -8 8 4 4 -3 -10 -14
-14 -11 -20 -21 -15 -21 6 0 2 -5 -8 -11 -9 -6 -15 -14 -12 -19 3 -4 -2 -11
-11 -14 -8 -3 -12 -10 -9 -16 3 -6 -1 -13 -9 -16 -9 -3 -13 -10 -10 -15 3 -5
-2 -12 -10 -15 -9 -3 -14 -10 -11 -14 3 -5 -3 -13 -12 -19 -10 -6 -13 -11 -8
-11 6 0 -1 -10 -15 -21 -14 -11 -18 -18 -10 -14 8 4 4 -3 -10 -14 -14 -11 -20
-21 -15 -21 6 0 2 -5 -8 -11 -9 -6 -15 -14 -12 -19 3 -4 -2 -11 -11 -14 -8 -3
-13 -10 -10 -15 3 -5 -1 -12 -10 -15 -8 -3 -13 -10 -9 -15 3 -6 -3 -14 -12
-20 -10 -6 -13 -11 -8 -11 6 0 -1 -10 -15 -21 -14 -11 -18 -18 -10 -14 8 4 4
-3 -10 -15 -14 -12 -18 -19 -10 -15 8 4 4 -3 -10 -14 -14 -11 -20 -21 -15 -21
6 0 2 -5 -8 -11 -9 -6 -15 -14 -12 -19 3 -4 -2 -11 -11 -14 -8 -3 -13 -10 -10
-15 3 -5 -1 -12 -10 -15 -8 -3 -12 -10 -9 -16 3 -6 -1 -13 -9 -16 -9 -3 -13
-10 -10 -15 3 -5 -2 -12 -10 -15 -9 -3 -14 -10 -11 -14 3 -5 -3 -13 -12 -19
-10 -6 -13 -11 -8 -11 6 0 -1 -10 -15 -21 -14 -11 -18 -18 -10 -14 8 4 4 -3
-10 -14 -14 -11 -20 -21 -15 -21 6 0 2 -5 -8 -11 -9 -6 -15 -14 -12 -19 3 -4
-2 -11 -11 -14 -8 -3 -13 -10 -10 -15 3 -5 -1 -12 -10 -15 -8 -3 -12 -10 -9
-16 3 -6 -1 -13 -9 -16 -9 -3 -13 -10 -10 -15 3 -5 -2 -12 -10 -15 -9 -3 -16
-12 -16 -20 0 -8 -4 -14 -10 -14 -5 0 -10 -6 -10 -14 0 -8 -7 -17 -16 -20 -8
-3 -13 -10 -10 -15 3 -5 -1 -12 -10 -15 -8 -3 -12 -10 -9 -16 3 -6 -1 -13 -9
-16 -9 -3 -13 -10 -10 -15 3 -5 -2 -12 -10 -15 -9 -3 -13 -10 -10 -15 3 -5 -2
-12 -10 -15 -9 -3 -13 -10 -10 -15 3 -5 -2 -12 -10 -15 -9 -3 -13 -10 -10 -15
3 -5 -2 -12 -10 -15 -9 -3 -16 -12 -16 -19 0 -7 -7 -16 -16 -19 -13 -5 -14 -9
-5 -20 9 -11 9 -14 -1 -12 -7 0 -14 -3 -15 -7 -1 -5 -10 -15 -20 -23 -10 -7
-13 -14 -8 -14 6 0 3 -5 -5 -10 -8 -5 -15 -14 -15 -19 0 -6 -9 -17 -20 -26
-11 -9 -13 -14 -5 -10 10 4 9 2 -2 -8 -10 -8 -15 -17 -12 -20 3 -3 -4 -10 -15
-17 -12 -6 -19 -15 -16 -19 3 -5 -2 -12 -11 -15 -8 -3 -13 -10 -10 -15 3 -5
-1 -12 -10 -15 -8 -3 -13 -10 -10 -15 3 -5 -1 -12 -10 -15 -8 -3 -12 -10 -9
-16 3 -6 -1 -13 -9 -16 -9 -3 -13 -10 -10 -15 3 -5 -2 -12 -10 -15 -9 -3 -13
-10 -10 -15 3 -5 -2 -12 -10 -15 -9 -3 -13 -10 -10 -15 3 -5 -2 -12 -10 -15
-9 -3 -16 -12 -16 -20 0 -8 -4 -14 -10 -14 -5 0 -10 -6 -10 -14 0 -8 -7 -17
-16 -20 -8 -3 -13 -10 -10 -15 3 -5 -1 -12 -10 -15 -8 -3 -12 -10 -9 -16 3 -6
-1 -13 -9 -16 -9 -3 -14 -10 -11 -14 3 -5 -3 -13 -12 -19 -10 -6 -13 -11 -8
-11 6 0 -1 -10 -15 -21 -14 -11 -18 -18 -10 -14 8 4 4 -3 -10 -14 -14 -11 -20
-21 -15 -21 6 0 2 -5 -8 -11 -9 -6 -15 -14 -12 -19 3 -4 -2 -11 -11 -14 -8 -3
-13 -10 -9 -16 3 -5 -5 -20 -17 -32 -13 -13 -22 -27 -20 -31 1 -4 -5 -10 -13
-13 -8 -3 -12 -10 -9 -15 3 -5 -2 -12 -10 -15 -9 -3 -13 -10 -10 -15 3 -5 -2
-12 -10 -15 -9 -3 -14 -10 -11 -15 3 -4 -4 -13 -15 -19 -11 -6 -18 -15 -15
-21 4 -5 1 -9 -4 -9 -6 0 -11 -7 -11 -15 0 -8 -5 -15 -11 -15 -5 0 -7 -4 -4
-10 3 -5 1 -10 -5 -10 -6 0 -9 -4 -5 -9 3 -6 -3 -14 -12 -20 -10 -6 -14 -11
-9 -11 6 0 1 -7 -10 -16 -10 -8 -12 -13 -4 -9 10 4 9 2 -2 -8 -10 -8 -15 -17
-11 -20 3 -4 1 -7 -6 -7 -7 0 -9 -4 -6 -10 3 -5 1 -10 -5 -10 -6 0 -9 -4 -6
-8 3 -5 -3 -18 -14 -29 -10 -12 -16 -24 -13 -27 4 -3 1 -6 -6 -6 -7 0 -9 -4
-6 -10 3 -5 2 -10 -3 -10 -6 0 -13 -11 -16 -25 -4 -14 -11 -25 -17 -25 -6 0
-7 -4 -4 -10 3 -5 1 -10 -5 -10 -6 0 -8 -4 -5 -10 3 -5 1 -10 -5 -10 -6 0 -8
-4 -5 -10 3 -5 1 -10 -5 -10 -6 0 -8 -4 -5 -10 3 -5 1 -10 -5 -10 -6 0 -8 -4
-5 -10 3 -5 1 -10 -5 -10 -6 0 -8 -4 -5 -10 3 -5 1 -10 -5 -10 -6 0 -8 -4 -5
-10 3 -5 1 -10 -5 -10 -6 0 -8 -4 -5 -10 3 -6 1 -10 -5 -10 -6 0 -8 -4 -5 -10
3 -6 1 -10 -5 -10 -6 0 -8 -4 -5 -10 3 -5 1 -10 -5 -10 -6 0 -8 -4 -5 -10 3
-5 1 -10 -5 -10 -6 0 -9 -4 -5 -9 3 -5 1 -12 -5 -16 -6 -4 -8 -11 -5 -16 4 -5
1 -9 -5 -9 -6 0 -8 -4 -5 -10 3 -6 1 -10 -5 -10 -6 0 -9 -4 -5 -9 3 -5 1 -12
-5 -16 -6 -4 -8 -11 -5 -16 4 -5 1 -9 -5 -9 -6 0 -9 -4 -5 -9 3 -5 1 -12 -5
-16 -6 -4 -8 -11 -5 -16 4 -5 1 -9 -5 -9 -7 0 -10 -7 -6 -15 3 -8 1 -15 -5
-15 -6 0 -7 -4 -4 -10 3 -6 -1 -7 -10 -4 -14 6 -16 29 -14 165 0 87 5 162 10
165 5 3 7 10 4 15 -4 5 -1 9 5 9 6 0 8 4 5 10 -3 6 -2 10 4 10 6 0 8 7 5 15
-4 8 -1 15 6 15 6 0 8 5 5 10 -3 6 -1 10 6 10 7 0 9 3 6 6 -3 4 -1 16 5 28 7
11 11 24 10 29 -1 4 3 7 9 7 5 0 7 5 4 10 -3 6 -1 10 5 10 6 0 9 4 5 9 -3 5
-1 12 5 16 6 4 8 11 5 16 -4 5 -1 9 5 9 6 0 8 5 5 10 -3 6 -1 10 5 10 6 0 9 4
5 9 -3 5 -1 12 5 16 6 4 8 11 5 16 -4 5 -1 9 5 9 6 0 8 5 5 10 -3 6 -1 10 5
10 6 0 9 4 5 9 -3 5 -1 12 5 16 6 4 8 11 5 16 -4 5 -1 9 5 9 6 0 8 5 5 10 -3
6 -1 10 5 10 6 0 9 4 5 9 -3 5 -1 12 5 16 6 4 8 11 5 16 -4 5 -1 9 5 9 6 0 8
5 5 10 -3 6 -2 10 4 10 6 0 7 7 4 17 -5 12 -3 14 7 8 10 -6 12 -4 7 8 -3 10
-2 17 4 17 6 0 7 5 4 10 -3 6 -1 10 5 10 6 0 9 4 5 9 -3 5 -1 12 5 16 6 4 8
11 5 16 -4 5 -1 9 5 9 6 0 8 5 5 10 -3 6 -1 10 5 10 6 0 9 4 5 9 -3 5 -1 12 5
16 6 4 8 11 5 16 -4 5 -1 9 5 9 6 0 8 5 5 10 -3 6 -1 10 5 10 6 0 9 4 5 9 -3
5 -1 12 5 16 6 4 8 11 5 16 -4 5 -1 9 5 9 6 0 8 5 5 10 -3 6 -1 10 5 10 6 0 9
4 5 9 -3 5 -1 12 5 16 6 4 8 11 5 16 -4 5 -1 9 5 9 6 0 8 5 5 10 -3 6 -1 10 5
10 6 0 9 4 5 9 -3 5 -1 12 5 16 6 4 8 11 5 16 -4 5 -1 9 5 9 6 0 8 5 5 10 -3
6 -1 10 5 10 6 0 8 5 5 10 -3 6 -1 10 5 10 7 0 10 7 6 15 -3 8 -1 15 5 15 6 0
7 5 4 10 -3 6 -1 10 5 10 6 0 9 4 5 9 -3 5 -1 12 5 16 6 4 8 11 5 16 -4 5 -1
9 5 9 6 0 8 5 5 10 -3 6 -1 10 5 10 6 0 9 4 5 9 -3 5 -1 12 5 16 6 4 8 11 5
16 -4 5 -1 9 5 9 6 0 8 5 5 10 -3 6 -1 10 5 10 6 0 9 4 5 9 -3 5 -1 12 5 16 6
4 8 11 5 16 -4 5 -1 9 5 9 6 0 8 5 5 10 -3 6 -1 10 5 10 6 0 9 4 5 9 -3 5 -1
12 5 16 6 4 8 11 5 16 -4 5 -1 9 5 9 6 0 8 5 5 10 -3 6 -1 10 5 10 6 0 9 4 5
9 -3 5 -1 12 5 16 6 4 8 11 5 16 -4 5 -1 9 5 9 6 0 8 5 5 10 -3 6 -1 10 5 10
6 0 9 4 5 9 -3 5 -1 12 5 16 6 4 8 11 5 16 -4 5 -1 9 5 9 6 0 8 5 5 10 -3 6
-1 10 5 10 6 0 9 4 5 9 -3 5 -1 12 5 16 6 4 8 11 5 16 -4 5 -1 9 5 9 6 0 8 5
5 10 -3 6 -1 10 5 10 6 0 8 5 5 10 -3 6 -1 10 5 10 7 0 10 7 6 15 -3 8 -1 15
5 15 6 0 7 5 4 10 -3 6 -1 10 5 10 6 0 9 4 5 9 -3 5 -1 12 5 16 6 4 8 11 5 16
-4 5 -1 9 5 9 6 0 8 5 5 10 -3 6 -1 10 5 10 6 0 8 5 5 10 -3 6 -1 10 5 10 7 0
10 7 6 15 -3 8 -1 15 5 15 6 0 7 5 4 10 -3 6 -1 10 5 10 6 0 8 5 5 10 -3 6 -1
10 5 10 7 0 10 7 6 15 -3 8 -1 15 5 15 6 0 7 5 4 10 -3 6 -1 10 5 10 6 0 8 5
5 10 -3 6 -1 10 5 10 7 0 10 7 6 15 -3 8 -1 15 5 15 6 0 7 5 4 10 -3 6 -1 10
5 10 6 0 8 5 5 10 -3 6 -2 10 4 10 6 0 8 7 5 15 -4 8 -1 15 6 15 6 0 8 5 5 10
-3 6 -1 10 4 10 6 0 10 3 9 8 -1 4 3 17 10 28 6 12 8 24 5 28 -3 3 -1 6 6 6 7
0 10 4 6 9 -3 5 -1 12 5 16 6 4 8 11 5 16 -4 5 -1 9 5 9 6 0 8 5 5 10 -3 6 -1
10 5 10 6 0 8 5 5 10 -3 6 -2 10 3 10 14 0 20 32 11 55 -6 17 -8 17 -8 3 -1
-10 -6 -18 -12 -18 -5 0 -7 -4 -4 -10 3 -5 1 -10 -5 -10 -6 0 -9 -4 -6 -9 3
-5 -1 -12 -10 -15 -8 -3 -12 -10 -9 -16 3 -5 1 -10 -5 -10 -6 0 -8 -4 -5 -10
3 -5 1 -10 -5 -10 -6 0 -8 -5 -5 -10 3 -6 -1 -13 -9 -16 -9 -3 -13 -10 -10
-15 3 -5 0 -9 -6 -9 -6 0 -8 -4 -5 -10 3 -5 1 -10 -5 -10 -6 0 -8 -5 -5 -10 3
-6 -1 -13 -9 -16 -9 -3 -13 -10 -10 -15 3 -5 0 -9 -6 -9 -6 0 -9 -4 -6 -9 3
-5 -1 -12 -10 -15 -8 -3 -12 -10 -9 -16 3 -5 1 -10 -5 -10 -6 0 -8 -4 -5 -10
3 -5 1 -10 -5 -10 -6 0 -9 -4 -5 -10 3 -5 -3 -18 -15 -30 -11 -11 -17 -20 -13
-20 4 0 -2 -7 -13 -16 -10 -8 -12 -13 -4 -9 10 4 9 2 -2 -8 -10 -8 -15 -17
-11 -20 3 -4 1 -7 -6 -7 -7 0 -9 -4 -6 -10 3 -5 1 -10 -5 -10 -6 0 -8 -5 -5
-10 3 -6 -1 -13 -9 -16 -9 -3 -13 -10 -10 -15 3 -5 0 -9 -6 -9 -6 0 -8 -4 -5
-10 3 -5 1 -10 -4 -10 -6 0 -11 -7 -11 -15 0 -8 -5 -15 -11 -15 -5 0 -7 -4 -4
-10 3 -5 1 -10 -5 -10 -6 0 -8 -4 -5 -10 3 -5 1 -10 -4 -10 -6 0 -11 -9 -11
-20 0 -11 -7 -23 -15 -26 -8 -4 -15 -12 -15 -20 0 -8 -5 -14 -11 -14 -5 0 -7
-4 -4 -10 3 -5 1 -10 -5 -10 -6 0 -8 -4 -5 -10 3 -5 1 -10 -4 -10 -6 0 -11 -7
-11 -15 0 -8 -5 -15 -11 -15 -5 0 -7 -4 -4 -10 3 -5 1 -10 -6 -10 -7 0 -9 -3
-6 -7 4 -3 -1 -12 -11 -20 -11 -10 -12 -12 -2 -8 10 4 9 2 -2 -8 -10 -8 -15
-17 -11 -20 3 -4 1 -7 -6 -7 -7 0 -9 -5 -6 -10 3 -6 -1 -13 -9 -16 -9 -3 -13
-10 -10 -15 3 -5 0 -9 -7 -9 -7 0 -9 -3 -6 -7 4 -3 -1 -12 -11 -20 -11 -10
-12 -12 -2 -8 10 4 9 2 -2 -8 -10 -8 -15 -17 -11 -20 3 -4 1 -7 -6 -7 -7 0 -9
-4 -6 -10 3 -5 1 -10 -4 -10 -6 0 -11 -7 -11 -15 0 -8 -5 -15 -11 -15 -5 0 -7
-4 -4 -10 3 -5 1 -10 -6 -10 -7 0 -9 -3 -6 -7 4 -3 -1 -12 -11 -20 -11 -10
-12 -12 -2 -8 10 4 9 2 -2 -8 -10 -8 -15 -17 -11 -20 3 -4 1 -7 -6 -7 -7 0
-10 -4 -7 -8 3 -5 -3 -18 -14 -29 -10 -12 -16 -24 -13 -27 4 -3 1 -6 -6 -6 -7
0 -9 -5 -6 -10 3 -6 -1 -13 -9 -16 -9 -3 -13 -10 -10 -15 3 -5 0 -9 -6 -9 -6
0 -8 -4 -5 -10 3 -5 1 -10 -4 -10 -6 0 -11 -7 -11 -15 0 -8 -5 -15 -11 -15 -5
0 -7 -4 -4 -10 3 -5 1 -10 -5 -10 -6 0 -9 -4 -6 -9 3 -5 -1 -12 -10 -15 -8 -3
-12 -10 -9 -16 3 -5 1 -10 -5 -10 -6 0 -8 -4 -5 -10 3 -5 1 -10 -5 -10 -6 0
-8 -5 -5 -10 3 -6 -1 -13 -9 -16 -9 -3 -13 -10 -10 -15 3 -5 0 -9 -7 -9 -7 0
-9 -3 -6 -7 4 -3 -1 -12 -11 -20 -11 -10 -12 -12 -2 -8 10 4 9 2 -2 -8 -10 -8
-15 -17 -11 -20 3 -4 1 -7 -6 -7 -7 0 -9 -4 -6 -10 3 -5 1 -10 -4 -10 -6 0
-11 -7 -11 -15 0 -8 -5 -15 -11 -15 -5 0 -7 -4 -4 -10 3 -5 1 -10 -5 -10 -6 0
-9 -4 -6 -9 3 -5 -1 -12 -10 -15 -8 -3 -12 -10 -9 -16 3 -5 1 -10 -5 -10 -6 0
-8 -4 -5 -10 3 -5 1 -10 -5 -10 -6 0 -8 -5 -5 -10 3 -6 -1 -13 -9 -16 -9 -3
-13 -10 -10 -15 3 -5 0 -9 -7 -9 -7 0 -9 -3 -6 -7 4 -3 -1 -12 -11 -20 -11
-10 -12 -12 -2 -8 10 4 9 2 -2 -8 -10 -8 -15 -17 -11 -20 3 -4 1 -7 -6 -7 -7
0 -10 -4 -7 -9 3 -5 -1 -12 -10 -15 -8 -3 -12 -10 -9 -16 3 -5 1 -10 -5 -10
-6 0 -8 -4 -5 -10 3 -5 1 -10 -4 -10 -6 0 -11 -7 -11 -15 0 -8 -5 -15 -11 -15
-5 0 -7 -4 -4 -10 3 -5 1 -10 -5 -10 -6 0 -8 -4 -5 -10 3 -5 1 -10 -4 -10 -6
0 -11 -7 -11 -15 0 -8 -5 -15 -11 -15 -5 0 -7 -4 -4 -10 3 -5 1 -10 -5 -10 -6
0 -9 -4 -6 -9 3 -5 -1 -12 -10 -15 -8 -3 -12 -10 -9 -16 3 -5 1 -10 -5 -10 -6
0 -8 -4 -5 -10 3 -5 1 -10 -5 -10 -6 0 -9 -4 -6 -9 3 -5 -1 -12 -10 -15 -8 -3
-12 -10 -9 -16 3 -5 1 -10 -5 -10 -6 0 -8 -4 -5 -10 3 -5 1 -10 -5 -10 -6 0
-9 -4 -6 -9 3 -5 -1 -12 -10 -15 -8 -3 -12 -10 -9 -16 3 -5 1 -10 -5 -10 -6 0
-8 -4 -5 -10 3 -5 1 -10 -5 -10 -6 0 -8 -5 -5 -10 3 -6 -1 -13 -9 -16 -9 -3
-13 -10 -10 -15 3 -5 0 -9 -6 -9 -6 0 -8 -4 -5 -10 3 -6 1 -10 -4 -10 -6 0
-11 -7 -11 -15 0 -8 -5 -15 -11 -15 -5 0 -7 -4 -4 -10 3 -5 1 -10 -5 -10 -6 0
-8 -4 -5 -10 3 -5 1 -10 -4 -10 -6 0 -11 -7 -11 -15 0 -8 -5 -15 -11 -15 -5 0
-7 -4 -4 -10 3 -5 1 -10 -5 -10 -6 0 -8 -5 -5 -10 3 -6 -1 -13 -9 -16 -9 -3
-13 -10 -10 -15 3 -5 0 -9 -6 -9 -6 0 -8 -4 -5 -10 3 -5 1 -10 -4 -10 -6 0
-11 -7 -11 -15 0 -8 -5 -15 -11 -15 -5 0 -7 -4 -4 -10 3 -5 1 -10 -6 -10 -7 0
-9 -3 -6 -7 4 -3 -1 -12 -11 -20 -11 -10 -12 -12 -2 -8 10 4 9 2 -2 -8 -10 -8
-15 -17 -11 -20 3 -4 1 -7 -6 -7 -7 0 -10 -4 -7 -9 3 -5 -1 -12 -10 -15 -8 -3
-12 -10 -9 -16 3 -5 1 -10 -5 -10 -6 0 -8 -4 -5 -10 3 -5 1 -10 -5 -10 -6 0
-8 -5 -5 -10 3 -6 -1 -13 -9 -16 -9 -3 -13 -10 -10 -15 3 -5 0 -9 -6 -9 -6 0
-8 -4 -5 -10 3 -5 1 -10 -4 -10 -6 0 -11 -7 -11 -15 0 -8 -5 -15 -11 -15 -5 0
-7 -4 -4 -10 3 -5 1 -10 -5 -10 -6 0 -8 -4 -5 -10 3 -5 1 -10 -4 -10 -6 0 -11
-7 -11 -15 0 -8 -5 -15 -11 -15 -5 0 -7 -4 -4 -10 3 -5 1 -10 -5 -10 -6 0 -8
-5 -5 -10 3 -6 -1 -13 -9 -16 -9 -3 -13 -10 -10 -15 3 -5 0 -9 -6 -9 -6 0 -8
-5 -5 -10 3 -5 1 -10 -4 -10 -6 0 -11 -7 -11 -15 0 -8 -5 -15 -11 -15 -5 0 -7
-4 -4 -10 3 -5 1 -10 -5 -10 -6 0 -8 -4 -5 -10 3 -5 1 -10 -4 -10 -6 0 -11 -7
-11 -15 0 -8 -5 -15 -11 -15 -5 0 -7 -4 -4 -10 3 -5 1 -10 -5 -10 -6 0 -9 -4
-6 -9 3 -5 -1 -12 -10 -15 -8 -3 -12 -10 -9 -16 3 -5 1 -10 -5 -10 -6 0 -8 -4
-5 -10 3 -5 1 -10 -5 -10 -6 0 -8 -5 -5 -10 3 -6 -1 -13 -9 -16 -9 -3 -13 -10
-10 -15 3 -5 0 -9 -6 -9 -6 0 -8 -5 -5 -10 3 -5 1 -10 -5 -10 -6 0 -8 -5 -5
-10 3 -6 -1 -13 -9 -16 -9 -3 -13 -10 -10 -15 3 -5 0 -9 -6 -9 -6 0 -8 -4 -5
-10 3 -5 1 -10 -4 -10 -6 0 -11 -7 -11 -15 0 -8 -5 -15 -11 -15 -5 0 -7 -5 -4
-10 3 -6 1 -10 -5 -10 -6 0 -8 -4 -5 -10 3 -5 1 -10 -4 -10 -6 0 -11 -7 -11
-15 0 -8 -5 -15 -11 -15 -5 0 -7 -5 -4 -10 3 -5 1 -10 -5 -10 -6 0 -9 -4 -6
-8 3 -5 -3 -18 -14 -29 -10 -12 -16 -24 -13 -27 4 -3 1 -6 -5 -6 -7 0 -12 -7
-12 -15 0 -8 -5 -15 -11 -15 -5 0 -7 -4 -4 -10 3 -5 1 -10 -6 -10 -7 0 -9 -3
-6 -7 4 -3 -1 -12 -11 -20 -11 -10 -12 -12 -2 -8 8 4 6 -1 -4 -9 -11 -9 -17
-16 -13 -16 4 0 -1 -10 -12 -22 -11 -11 -18 -25 -15 -30 3 -4 0 -8 -6 -8 -6 0
-8 -5 -5 -10 3 -6 1 -10 -4 -10 -6 0 -11 -7 -11 -15 0 -8 -5 -15 -11 -15 -5 0
-7 -4 -4 -10 3 -5 1 -10 -5 -10 -6 0 -8 -4 -5 -10 3 -5 1 -10 -4 -10 -6 0 -11
-7 -11 -15 0 -8 -5 -15 -11 -15 -5 0 -7 -4 -4 -10 3 -5 1 -10 -5 -10 -6 0 -9
-4 -6 -9 3 -5 -1 -12 -10 -15 -8 -3 -12 -10 -9 -16 3 -5 1 -10 -5 -10 -6 0 -8
-4 -5 -10 3 -5 1 -10 -5 -10 -6 0 -9 -4 -6 -9 3 -5 -1 -12 -10 -15 -8 -3 -12
-10 -9 -16 3 -5 1 -10 -5 -10 -6 0 -8 -4 -5 -10 3 -6 1 -10 -5 -10 -6 0 -8 -5
-5 -10 3 -6 -1 -13 -9 -16 -9 -3 -13 -10 -10 -15 3 -5 0 -9 -6 -9 -6 0 -8 -4
-5 -10 3 -6 1 -10 -4 -10 -6 0 -11 -7 -11 -15 0 -8 -5 -15 -11 -15 -5 0 -7 -4
-4 -10 3 -5 1 -10 -5 -10 -6 0 -8 -4 -5 -10 3 -5 1 -10 -4 -10 -6 0 -11 -7
-11 -15 0 -8 -5 -15 -11 -15 -5 0 -7 -4 -4 -10 3 -5 1 -10 -5 -10 -6 0 -9 -4
-6 -9 3 -5 -1 -12 -10 -15 -8 -3 -12 -10 -9 -16 3 -5 1 -10 -5 -10 -6 0 -8 -4
-5 -10 3 -5 1 -10 -4 -10 -6 0 -11 -7 -11 -15 0 -8 -5 -15 -11 -15 -5 0 -7 -4
-4 -10 3 -5 1 -10 -5 -10 -6 0 -9 -4 -6 -9 4 -5 2 -11 -4 -13 -7 -2 -10 -360
-9 -1073 0 -589 1 -1078 0 -1087 0 -10 5 -18 10 -18 6 0 7 -4 4 -10 -3 -5 -1
-10 5 -10 6 0 9 -4 6 -9 -3 -5 1 -11 9 -15 8 -3 15 -12 15 -20 0 -8 5 -18 12
-22 7 -5 8 -3 3 5 -4 7 4 5 19 -4 14 -10 26 -22 26 -27 0 -6 7 -8 15 -4 8 3
15 1 15 -5 0 -6 9 -8 19 -4 11 3 22 1 26 -5 9 -14 1121 -14 1130 0 4 6 15 8
26 5 11 -4 19 -2 19 5 0 7 7 10 15 6 8 -3 15 -1 15 5 0 6 4 8 9 4 5 -3 13 4
16 16 5 14 10 18 14 10 5 -8 13 -5 26 9 10 11 15 20 11 20 -4 0 2 14 14 30 12
17 18 30 14 30 -3 0 -2 6 4 13 8 9 11 336 12 1072 l1 1059 22 25 c12 13 15 21
7 17 -8 -4 5 11 30 34 25 23 38 39 30 35 -8 -4 0 6 18 22 18 15 32 33 32 38 0
6 17 25 37 43 21 18 31 31 23 27 -8 -3 1 8 20 25 19 17 35 35 35 40 0 5 16 23
35 40 19 17 28 28 20 25 -8 -4 3 10 25 29 22 20 39 40 38 45 -2 6 11 19 27 31
16 12 29 25 27 31 -1 5 16 25 38 45 22 19 33 33 25 29 -8 -3 1 8 20 25 19 17
35 35 35 41 0 6 16 24 35 41 19 16 28 27 20 23 -8 -3 2 9 23 27 20 18 37 38
37 43 0 6 17 25 37 43 21 18 31 30 23 26 -13 -7 -13 -6 -1 10 16 19 57 18 54
-2 -2 -6 2 -12 8 -12 5 0 7 -5 4 -10 -3 -6 1 -13 9 -16 9 -3 14 -10 11 -14 -3
-4 2 -11 11 -14 8 -3 12 -10 9 -16 -3 -5 -1 -10 5 -10 6 0 8 -5 5 -10 -3 -6 1
-13 9 -16 9 -3 14 -10 11 -14 -3 -4 2 -11 11 -14 8 -3 12 -10 9 -16 -3 -5 -1
-10 5 -10 6 0 9 -4 5 -9 -3 -6 3 -14 12 -20 10 -6 14 -11 9 -11 -6 0 -1 -7 10
-16 10 -8 12 -13 4 -9 -8 4 -6 -1 4 -9 11 -9 16 -16 10 -16 -5 0 -1 -5 9 -11
9 -6 15 -14 12 -19 -3 -4 2 -11 11 -14 8 -3 12 -10 9 -16 -3 -5 -1 -10 5 -10
6 0 9 -4 5 -9 -3 -6 3 -14 12 -20 10 -6 14 -11 9 -11 -6 0 -1 -7 10 -16 10 -8
12 -13 4 -9 -8 4 -6 -1 4 -9 11 -9 16 -16 10 -16 -5 0 -1 -5 9 -11 9 -6 15
-14 12 -19 -3 -4 2 -11 11 -14 8 -3 12 -10 9 -16 -3 -5 -1 -10 5 -10 6 0 9 -4
6 -9 -3 -5 1 -12 10 -15 8 -3 12 -10 9 -16 -3 -5 -1 -10 4 -10 6 0 11 -7 11
-15 0 -8 5 -15 11 -15 5 0 8 -4 4 -9 -3 -6 3 -14 12 -20 10 -6 14 -11 9 -11
-6 0 -1 -7 10 -16 10 -8 12 -13 4 -9 -8 4 -6 -1 4 -9 11 -9 16 -16 11 -16 -5
0 0 -7 11 -15 10 -8 15 -15 10 -15 -6 0 -1 -7 10 -16 10 -8 12 -13 4 -9 -10 4
-9 2 2 -8 10 -8 15 -17 11 -20 -3 -4 2 -9 11 -13 9 -3 13 -10 10 -15 -3 -5 0
-9 6 -9 6 0 8 -5 5 -10 -3 -6 1 -13 9 -16 9 -3 14 -10 11 -14 -3 -4 2 -11 11
-14 9 -4 14 -9 11 -13 -4 -3 1 -12 11 -20 11 -10 12 -12 2 -8 -8 4 -6 -1 4 -9
11 -9 16 -16 10 -16 -5 0 -1 -5 9 -11 9 -6 15 -14 12 -20 -4 -5 -1 -9 4 -9 6
0 11 -7 11 -15 0 -8 5 -15 11 -15 5 0 8 -4 4 -9 -3 -6 3 -14 12 -20 10 -6 14
-11 9 -11 -6 0 -1 -7 10 -16 10 -8 12 -13 4 -9 -8 4 -6 -1 4 -9 11 -9 16 -16
10 -16 -5 0 -1 -5 9 -11 9 -6 15 -14 12 -20 -4 -5 -1 -9 4 -9 6 0 11 -7 11
-15 0 -8 5 -15 11 -15 5 0 8 -4 5 -9 -3 -5 1 -12 10 -15 8 -3 12 -10 9 -16 -3
-5 -1 -10 4 -10 6 0 11 -7 11 -15 0 -8 5 -15 11 -15 5 0 8 -4 5 -9 -3 -5 1
-12 10 -15 8 -3 12 -10 9 -16 -3 -5 -1 -10 5 -10 6 0 8 -5 5 -10 -3 -6 1 -13
9 -16 9 -3 13 -10 10 -15 -3 -5 0 -9 5 -9 6 0 11 -7 11 -15 0 -8 5 -15 11 -15
5 0 7 -5 4 -10 -3 -6 1 -13 9 -16 9 -3 14 -10 11 -14 -3 -4 2 -11 11 -14 8 -3
12 -10 9 -16 -3 -5 -1 -10 5 -10 6 0 8 -5 5 -10 -3 -6 1 -13 9 -16 9 -3 14
-10 11 -14 -3 -4 2 -11 11 -14 9 -4 14 -9 11 -13 -4 -3 1 -12 11 -20 11 -10
12 -12 2 -8 -8 4 -6 -1 4 -9 11 -9 16 -16 10 -16 -5 0 -1 -5 9 -11 9 -6 15
-14 12 -20 -4 -5 -1 -9 5 -9 6 0 8 -5 5 -10 -3 -6 1 -13 9 -16 9 -3 14 -10 11
-14 -3 -4 2 -11 11 -14 8 -3 12 -10 9 -16 -3 -5 -1 -10 5 -10 6 0 8 -5 5 -10
-3 -6 1 -13 9 -16 9 -3 14 -10 11 -14 -3 -4 2 -11 11 -14 8 -3 12 -10 9 -16
-3 -5 -1 -10 5 -10 6 0 8 -5 5 -10 -3 -6 1 -13 9 -16 9 -3 14 -10 11 -14 -3
-4 2 -11 11 -14 8 -3 12 -10 9 -16 -3 -5 -1 -10 4 -10 6 0 11 -7 11 -15 0 -8
5 -15 11 -15 5 0 8 -4 5 -9 -3 -5 1 -12 10 -15 8 -3 12 -10 9 -16 -3 -5 -1
-10 5 -10 6 0 8 -5 5 -10 -3 -6 1 -13 9 -16 9 -3 14 -10 11 -14 -3 -4 2 -11
11 -14 8 -3 12 -10 9 -16 -3 -5 -1 -10 5 -10 6 0 8 -5 5 -10 -3 -6 1 -13 9
-16 9 -3 14 -10 11 -14 -3 -4 2 -11 11 -14 8 -3 12 -10 9 -16 -3 -5 -1 -10 5
-10 6 0 8 -5 5 -10 -3 -6 1 -13 9 -16 9 -3 14 -10 11 -14 -3 -4 2 -11 11 -14
8 -3 12 -10 9 -16 -3 -5 -1 -10 5 -10 6 0 8 -5 5 -10 -3 -6 1 -13 9 -16 9 -3
14 -10 11 -14 -3 -4 2 -11 11 -14 8 -3 12 -10 9 -16 -3 -5 -1 -10 5 -10 6 0 9
-4 5 -9 -3 -6 3 -14 12 -20 10 -6 14 -11 9 -11 -6 0 -1 -7 10 -16 10 -8 12
-13 4 -9 -8 4 -4 -3 10 -15 14 -12 18 -19 10 -15 -8 4 -6 -1 4 -9 11 -9 16
-16 10 -16 -5 0 -1 -5 9 -11 9 -6 15 -14 12 -20 -4 -5 -1 -9 5 -9 6 0 9 -4 6
-9 -3 -5 1 -12 10 -15 8 -3 13 -10 10 -15 -3 -5 1 -12 10 -15 8 -3 12 -10 9
-16 -3 -5 -1 -10 4 -10 6 0 11 -7 11 -15 0 -8 5 -15 11 -15 5 0 8 -4 5 -9 -3
-5 1 -12 10 -15 8 -3 12 -10 9 -16 -3 -5 -1 -10 5 -10 6 0 9 -4 6 -9 -3 -5 1
-12 10 -15 8 -3 12 -10 9 -16 -3 -5 -1 -10 4 -10 6 0 11 -7 11 -15 0 -8 5 -15
11 -15 5 0 7 -5 4 -10 -3 -6 1 -13 9 -16 9 -3 13 -10 10 -15 -3 -5 0 -9 5 -9
6 0 11 -7 11 -15 0 -8 5 -15 11 -15 5 0 7 -5 4 -10 -3 -6 1 -13 9 -16 9 -3 14
-10 11 -14 -3 -4 2 -11 11 -14 8 -3 12 -10 9 -16 -3 -5 -1 -10 5 -10 6 0 9 -4
6 -9 -3 -5 1 -12 10 -15 8 -3 12 -10 9 -16 -3 -5 -1 -10 4 -10 6 0 11 -7 11
-15 0 -8 5 -15 11 -15 5 0 8 -4 4 -9 -3 -6 3 -14 12 -20 10 -6 14 -11 9 -11
-6 0 -1 -7 10 -16 10 -8 12 -12 4 -9 -8 4 0 -5 18 -20 18 -15 29 -31 26 -37
-4 -7 -2 -8 4 -4 6 4 21 -7 33 -23 12 -17 26 -28 31 -25 4 3 11 -2 14 -10 3
-9 10 -13 15 -10 5 3 9 0 9 -6 0 -6 4 -8 10 -5 6 3 10 1 10 -5 0 -6 4 -8 10
-5 5 3 10 1 10 -5 0 -6 4 -8 10 -5 6 3 10 1 10 -5 0 -7 7 -10 15 -6 8 3 15 1
15 -4 0 -5 6 -7 14 -4 8 3 17 0 21 -5 3 -6 11 -9 16 -5 5 3 15 1 22 -4 7 -5
19 -10 27 -10 8 -1 38 -5 65 -8 55 -8 1055 -10 1096 -2 14 2 30 8 37 12 7 4
12 4 12 0 0 -4 9 1 20 11 11 10 20 15 20 12 0 -3 13 6 28 21 15 15 27 30 25
34 -2 4 1 9 5 12 11 6 9 66 -1 83 -5 7 -5 17 -2 23 3 5 2 10 -2 10 -5 0 -10
10 -10 22 -1 13 -7 24 -13 26 -5 2 -10 10 -10 18 0 8 -5 14 -11 14 -5 0 -8 4
-5 9 3 5 -1 12 -10 15 -8 3 -13 10 -10 15 3 5 -1 12 -10 15 -8 3 -12 10 -9 16
3 5 1 10 -4 10 -6 0 -11 7 -11 15 0 8 -5 15 -11 15 -5 0 -8 4 -5 9 3 5 -1 12
-10 15 -8 3 -13 10 -10 15 3 5 -1 12 -10 15 -9 4 -14 9 -11 13 4 3 -1 12 -11
20 -11 10 -12 12 -2 8 8 -4 6 1 -4 9 -11 9 -16 16 -10 16 5 0 1 5 -9 11 -9 6
-15 14 -12 19 3 4 -2 11 -11 14 -8 3 -12 10 -9 16 3 5 1 10 -4 10 -6 0 -11 7
-11 15 0 8 -4 15 -10 15 -5 0 -10 7 -10 15 0 8 -5 15 -11 15 -5 0 -8 4 -5 9 3
5 -1 12 -10 15 -8 3 -13 10 -10 15 3 5 -1 12 -10 15 -8 3 -12 10 -9 16 3 5 1
10 -5 10 -6 0 -8 5 -5 10 3 6 -1 13 -9 16 -9 3 -14 10 -11 14 3 4 -2 11 -11
14 -8 3 -13 10 -10 15 3 5 -1 12 -10 15 -8 3 -12 10 -9 16 3 5 1 10 -4 10 -6
0 -11 7 -11 15 0 8 -5 15 -11 15 -5 0 -7 5 -4 10 3 6 -1 13 -9 16 -9 3 -13 11
-9 17 4 6 0 8 -9 4 -11 -4 -15 0 -14 11 2 9 -4 23 -13 30 -13 11 -13 12 -1 7
8 -4 6 1 -4 9 -11 9 -16 16 -10 16 5 0 0 7 -10 15 -11 8 -16 15 -11 15 5 0 0
7 -11 16 -10 8 -12 13 -4 9 10 -4 9 -2 -2 8 -10 8 -18 19 -18 26 0 6 -5 11
-11 11 -5 0 -7 5 -4 10 3 6 -1 13 -9 16 -9 3 -14 10 -11 14 3 4 -2 11 -11 14
-8 3 -13 10 -10 15 3 5 -1 12 -10 15 -8 3 -12 10 -9 16 3 5 1 10 -5 10 -6 0
-8 5 -5 10 3 6 -1 13 -9 16 -9 3 -14 10 -11 14 3 4 -2 11 -11 14 -9 4 -14 9
-11 13 4 3 -1 12 -11 20 -11 10 -12 12 -2 8 8 -4 4 3 -10 15 -14 12 -18 19
-10 15 8 -4 6 1 -4 9 -11 9 -16 16 -11 16 4 0 -4 11 -19 25 -15 14 -24 30 -21
35 3 6 1 10 -4 10 -6 0 -11 7 -11 15 0 8 -5 15 -11 15 -5 0 -7 5 -4 10 3 6 -1
13 -9 16 -9 3 -14 10 -11 14 3 4 -2 11 -11 14 -8 3 -13 10 -10 15 3 5 -1 12
-10 15 -8 3 -12 10 -9 16 3 5 1 10 -5 10 -6 0 -8 5 -5 10 3 6 -1 13 -9 16 -9
3 -13 10 -10 15 3 5 -2 12 -10 15 -9 3 -14 10 -11 14 3 4 -2 11 -11 14 -8 3
-12 10 -9 16 3 5 1 10 -5 10 -6 0 -8 5 -5 10 3 6 -1 13 -9 16 -9 3 -14 10 -11
14 3 4 -2 11 -11 14 -8 3 -13 10 -10 15 3 5 -1 12 -10 15 -8 3 -13 10 -10 15
3 5 -1 12 -10 15 -8 3 -12 10 -9 16 3 5 1 10 -5 10 -6 0 -8 5 -5 10 3 6 -1 13
-9 16 -9 3 -14 10 -11 14 3 4 -2 11 -11 14 -8 3 -12 10 -9 16 3 5 1 10 -4 10
-6 0 -11 5 -11 11 0 7 -8 18 -17 26 -12 10 -13 12 -3 8 8 -4 6 1 -4 9 -11 9
-16 16 -11 16 5 0 0 7 -11 15 -10 8 -15 15 -10 15 6 0 1 7 -10 15 -10 8 -15
15 -10 15 6 0 1 7 -10 16 -10 8 -12 13 -4 9 10 -4 9 -2 -2 8 -10 8 -15 17 -11
20 3 4 -2 9 -11 13 -9 3 -14 10 -11 14 3 4 -2 11 -11 14 -8 3 -12 10 -9 16 3
5 1 10 -4 10 -6 0 -11 7 -11 15 0 8 -5 15 -11 15 -5 0 -7 5 -4 10 3 6 -1 13
-9 16 -9 3 -14 10 -11 14 3 4 -2 11 -11 14 -8 3 -12 10 -9 16 3 5 1 10 -4 10
-6 0 -11 5 -11 11 0 7 -8 18 -17 26 -12 10 -13 12 -3 8 8 -4 6 1 -4 9 -11 9
-16 16 -10 16 5 0 1 5 -9 11 -9 6 -15 14 -12 19 3 4 -2 11 -11 14 -8 3 -12 10
-9 16 3 5 1 10 -4 10 -6 0 -11 7 -11 15 0 8 -5 15 -11 15 -5 0 -8 4 -5 9 3 5
-1 12 -10 15 -8 3 -12 10 -9 16 3 5 1 10 -4 10 -6 0 -11 7 -11 15 0 8 -5 15
-11 15 -5 0 -7 5 -4 10 3 6 -1 13 -9 16 -9 3 -13 10 -10 15 3 5 -2 12 -10 15
-9 3 -14 10 -11 14 3 4 -2 11 -11 14 -8 3 -13 10 -10 15 3 5 -1 12 -10 15 -8
3 -12 10 -9 16 3 5 1 10 -5 10 -6 0 -8 5 -5 10 3 6 -1 13 -9 16 -9 3 -14 10
-11 14 3 4 -2 11 -11 14 -8 3 -13 10 -10 15 3 5 -1 12 -10 15 -8 3 -12 10 -9
16 3 5 1 10 -5 10 -6 0 -8 5 -5 10 3 6 -1 13 -9 16 -9 3 -13 10 -10 15 3 5 -2
12 -10 15 -9 3 -14 10 -11 14 3 4 -2 11 -11 14 -8 3 -12 10 -9 16 3 5 1 10 -5
10 -6 0 -8 5 -5 10 3 6 -1 13 -9 16 -9 3 -14 10 -11 15 3 4 -4 13 -15 19 -11
6 -20 20 -20 30 0 11 -5 20 -11 20 -5 0 -7 5 -4 10 3 6 -1 13 -9 16 -9 3 -13
10 -10 15 3 5 -2 12 -10 15 -9 3 -14 10 -11 14 3 4 -2 11 -11 14 -8 3 -12 10
-9 16 3 5 1 10 -4 10 -6 0 -11 7 -11 15 0 8 -5 15 -11 15 -5 0 -7 5 -4 10 3 6
-1 13 -9 16 -9 3 -13 10 -10 15 3 5 -2 12 -10 15 -9 3 -13 10 -10 15 3 5 0 9
-5 9 -6 0 -11 7 -11 15 0 8 -5 15 -11 15 -5 0 -7 5 -4 10 3 6 -4 14 -17 19
-13 6 -17 10 -8 11 12 0 11 4 -4 15 -11 8 -16 15 -10 15 5 0 1 5 -9 11 -9 6
-15 14 -12 20 4 5 1 9 -4 9 -6 0 -11 7 -11 15 0 8 -5 15 -11 15 -5 0 -7 5 -4
10 3 6 -1 13 -9 16 -9 3 -13 10 -10 15 3 5 0 9 -5 9 -6 0 -11 7 -11 15 0 8 -5
15 -11 15 -5 0 -7 5 -4 10 3 6 -1 13 -9 16 -9 3 -13 10 -10 15 3 5 -2 12 -10
15 -9 3 -14 10 -11 14 3 4 -2 11 -11 14 -8 3 -13 10 -10 15 3 5 -1 12 -10 15
-8 3 -12 10 -9 16 3 5 1 10 -5 10 -6 0 -8 5 -5 10 3 6 -1 13 -9 16 -9 3 -14
10 -11 14 3 4 -2 11 -11 14 -8 3 -13 10 -10 15 3 5 -1 12 -10 15 -9 4 -14 9
-11 13 4 3 -1 12 -11 20 -11 10 -12 12 -2 8 8 -4 6 1 -4 9 -11 9 -16 16 -10
16 5 0 1 5 -9 11 -9 6 -15 14 -12 19 3 4 -2 11 -11 14 -8 3 -12 10 -9 16 3 5
1 10 -4 10 -6 0 -11 7 -11 15 0 8 -5 15 -11 15 -5 0 -7 5 -4 10 3 6 -1 13 -9
16 -9 3 -14 10 -11 14 3 4 -2 11 -11 14 -9 4 -14 9 -11 13 4 3 -1 12 -11 20
-11 10 -12 12 -2 8 10 -4 9 -2 -2 8 -10 8 -15 17 -11 20 3 4 -2 9 -11 13 -9 3
-14 10 -11 14 3 4 -2 11 -11 14 -8 3 -13 10 -10 15 3 5 -1 12 -10 15 -8 3 -12
10 -9 16 3 5 1 10 -5 10 -6 0 -8 5 -5 10 3 6 -1 13 -9 16 -9 3 -14 10 -11 14
3 4 -2 11 -11 14 -8 3 -12 10 -9 16 3 5 1 10 -4 10 -6 0 -11 5 -11 11 0 7 -8
18 -17 26 -12 10 -13 12 -3 8 8 -4 6 1 -4 9 -11 9 -16 16 -10 16 5 0 0 7 -10
15 -11 8 -16 15 -10 15 5 0 2 5 -6 11 -11 8 -12 12 -2 16 6 2 10 9 7 13 -3 5
4 14 15 20 11 6 18 15 15 20 -3 5 4 14 15 20 11 6 18 15 15 19 -3 5 2 12 10
15 8 3 14 10 13 15 -2 5 6 17 17 26 11 9 13 14 5 10 -8 -4 -5 2 8 13 12 11 22
25 22 30 0 5 7 13 16 16 8 3 13 10 9 15 -3 6 4 15 15 21 11 6 18 15 15 19 -3
5 2 12 11 15 8 3 13 10 9 15 -3 6 4 15 15 21 11 6 18 15 15 21 -4 5 1 12 9 15
9 3 14 10 11 15 -3 4 4 13 15 19 11 6 19 15 17 20 -1 5 7 16 18 25 11 9 13 14
5 10 -8 -4 -5 2 7 13 12 11 20 22 17 25 -3 3 4 10 15 17 12 6 19 15 16 21 -4
5 1 12 9 15 9 3 14 10 11 15 -3 4 4 13 15 19 11 6 19 15 17 20 -1 5 7 16 18
25 11 9 13 14 5 10 -8 -4 -6 1 5 10 11 9 19 20 18 25 -2 5 6 14 17 20 11 6 18
15 15 21 -4 5 1 12 9 15 9 3 14 10 11 15 -3 4 4 13 15 19 11 6 19 15 17 20 -1
5 7 16 18 25 11 9 13 14 5 10 -8 -4 -6 1 5 10 11 9 19 20 18 25 -2 5 6 14 17
20 11 6 18 15 15 21 -4 5 1 12 9 15 9 3 16 11 16 16 0 6 8 17 18 25 11 10 12
12 2 8 -8 -4 -1 5 15 19 17 14 26 26 20 26 -5 0 -2 5 8 11 9 5 17 16 17 23 0
8 7 17 16 20 8 3 12 10 9 16 -3 6 1 13 9 16 9 3 16 12 16 19 0 7 7 16 16 19 8
3 12 10 9 16 -3 6 1 13 9 16 9 3 16 12 16 19 0 7 7 16 16 19 8 3 13 10 9 15
-3 6 4 15 15 21 11 6 18 15 15 20 -3 6 6 22 22 37 15 16 28 32 28 36 0 4 7 12
15 17 8 5 11 10 7 10 -5 0 8 16 28 35 20 19 34 39 31 44 -4 6 3 15 14 21 11 6
18 15 15 19 -3 5 2 12 11 15 8 3 13 10 9 15 -3 6 4 15 15 21 11 6 18 15 15 21
-4 5 1 12 9 15 9 3 14 10 11 15 -3 4 4 13 15 19 11 6 18 15 15 21 -4 5 1 12 9
15 9 3 16 12 16 19 0 7 7 16 16 19 8 3 13 10 9 15 -3 6 4 15 15 21 11 6 18 15
15 19 -3 5 2 12 10 15 8 3 14 10 13 15 -2 5 6 17 17 26 11 9 13 14 5 10 -8 -4
-1 6 15 20 17 15 23 24 15 20 -8 -3 -6 1 5 10 11 9 20 20 20 26 0 5 7 14 15
19 8 5 15 14 15 19 0 6 9 17 20 26 11 9 13 14 5 10 -8 -4 -6 1 5 10 11 9 19
21 17 26 -1 5 5 12 13 15 8 4 15 12 15 19 0 7 7 15 15 19 8 3 14 10 13 15 -2
5 6 17 17 26 11 9 13 14 5 10 -8 -4 -4 3 9 14 13 12 19 21 15 21 -5 0 0 7 11
16 11 8 20 19 20 24 0 5 9 16 20 25 11 9 13 14 5 10 -8 -4 -6 1 5 10 11 9 20
20 20 25 0 5 9 16 20 25 11 9 13 14 5 10 -8 -4 -6 1 5 10 11 9 19 20 18 25 -2
5 6 14 17 20 11 6 18 15 15 20 -3 5 4 14 16 20 11 7 18 14 15 17 -3 3 2 12 12
20 11 10 12 12 2 8 -8 -4 -4 3 10 16 14 12 24 26 22 31 -1 5 5 11 13 14 8 4
15 12 15 19 0 7 7 16 16 19 8 3 13 10 9 15 -3 6 4 15 15 21 11 6 18 15 15 19
-3 5 2 12 11 15 8 3 12 10 9 16 -3 6 1 13 9 16 9 3 16 12 16 19 0 7 7 15 15
19 8 3 15 12 15 20 0 7 7 17 16 20 8 3 12 11 9 16 -4 6 7 23 24 39 17 16 31
34 31 40 0 6 5 11 10 11 6 0 10 6 10 14 0 7 10 21 23 30 12 9 15 14 7 11 -8
-4 -6 1 5 10 11 9 19 21 17 26 -1 5 5 12 13 15 8 4 15 13 15 20 0 8 7 17 15
20 8 4 13 10 10 15 -3 4 4 13 15 19 11 6 18 15 15 21 -4 5 1 12 9 15 9 3 14
10 11 15 -3 4 4 13 15 19 11 6 18 15 15 21 -4 5 1 12 9 15 9 3 16 12 16 19 0
7 7 15 15 19 8 3 14 9 13 14 -2 5 8 19 22 31 14 13 18 20 10 16 -10 -4 -9 -2
2 8 10 8 15 17 11 20 -3 4 -2 7 4 7 9 0 21 23 27 52 0 3 4 10 9 14 20 20 3 76
-37 118 -10 12 -16 15 -12 9 5 -9 2 -11 -8 -7 -9 3 -13 11 -9 17 4 6 0 8 -9 4
-9 -3 -18 -4 -20 -1 -8 8 -1340 9 -1345 1z"/>
<path d="M6076 7025 c-3 -8 -1 -15 4 -15 6 0 10 7 10 15 0 8 -2 15 -4 15 -2 0
-6 -7 -10 -15z"/>
<path d="M3556 3208 c3 -5 10 -6 15 -3 13 9 11 12 -6 12 -8 0 -12 -4 -9 -9z"/>
<path d="M3534 3172 c3 -5 1 -12 -5 -14 -7 -2 -10 -9 -8 -16 3 -8 9 -5 16 7 9
15 10 22 1 27 -6 4 -8 3 -4 -4z"/>
</g>
</svg>
